<?xml version="1.0" encoding="UTF-8" standalone="no"?>
<!-- Created with Inkscape (http://www.inkscape.org/) -->

<svg
   width="300"
   height="75"
   viewBox="0 0 300 75"
   version="1.1"
   id="svg5"
   inkscape:version="1.2.2 (b0a8486541, 2022-12-01)"
   sodipodi:docname="lechoixparfait.svg"
   xml:space="preserve"
   xmlns:inkscape="http://www.inkscape.org/namespaces/inkscape"
   xmlns:sodipodi="http://sodipodi.sourceforge.net/DTD/sodipodi-0.dtd"
   xmlns="http://www.w3.org/2000/svg"
   xmlns:svg="http://www.w3.org/2000/svg"><sodipodi:namedview
     id="namedview7"
     pagecolor="#ffffff"
     bordercolor="#999999"
     borderopacity="1"
     inkscape:showpageshadow="0"
     inkscape:pageopacity="0"
     inkscape:pagecheckerboard="0"
     inkscape:deskcolor="#d1d1d1"
     inkscape:document-units="mm"
     showgrid="false"
     inkscape:zoom="1.9919472"
     inkscape:cx="202.81662"
     inkscape:cy="92.120914"
     inkscape:window-width="1356"
     inkscape:window-height="732"
     inkscape:window-x="0"
     inkscape:window-y="0"
     inkscape:window-maximized="1"
     inkscape:current-layer="g406" /><defs
     id="defs2" /><g
     inkscape:label="Layer 1"
     inkscape:groupmode="layer"
     id="layer1"><g
       id="g406"
       transform="translate(4.9808295)"><g
         aria-label="LE CHOIX PARFAIT"
         id="text236"
         style="font-size:36.7277px;font-family:'Inria Sans';-inkscape-font-specification:'Inria Sans';fill:#ffffff;stroke:#000000;stroke-width:7.65162"
         transform="matrix(0.81660635,0,0,0.81660635,56.559391,6.8772607)"><path
           d="m 22.665101,45.763734 v 4.223685 H 8.2678425 V 25.012584 h 4.4073235 v 20.75115 z"
           style="font-weight:bold;-inkscape-font-specification:'Inria Sans Bold';fill:#000000;stroke:none"
           id="path1623" /><path
           d="m 41.359499,45.763734 v 4.223685 H 26.888786 V 25.012584 h 14.103436 v 4.223685 h -9.696113 v 5.986615 h 8.594282 v 4.223685 h -8.594282 v 6.317165 z"
           style="font-weight:bold;-inkscape-font-specification:'Inria Sans Bold';fill:#000000;stroke:none"
           id="path1625" /><path
           d="m 57.299325,40.107668 q 0,2.681122 1.175287,4.407324 1.175286,1.689474 3.856408,1.689474 1.101831,0 2.277117,-0.293821 1.212015,-0.293822 2.974944,-0.991648 l 1.358925,3.81968 q -1.983296,0.881465 -3.67277,1.248742 -1.652746,0.367277 -3.19531,0.367277 -3.085127,0 -5.178605,-1.322197 -2.056752,-1.322197 -3.085127,-3.636042 -1.028376,-2.313845 -1.028376,-5.288789 v -5.252061 q 0,-2.974944 1.028376,-5.288789 1.028375,-2.313845 3.085127,-3.599314 2.093478,-1.322197 5.178605,-1.322197 1.505836,0 3.121855,0.367277 1.616018,0.330549 3.525859,1.175286 l -1.358925,3.893136 q -1.689474,-0.697826 -2.828033,-0.991648 -1.138559,-0.293821 -2.203662,-0.293821 -2.681122,0 -3.856408,1.689474 -1.175287,1.689474 -1.175287,4.370596 z"
           style="font-weight:bold;-inkscape-font-specification:'Inria Sans Bold';fill:#000000;stroke:none"
           id="path1627" /><path
           d="m 87.269139,49.987419 v -10.54085 h -9.328836 v 10.54085 H 73.532979 V 25.012584 h 4.407324 v 10.2103 h 9.328836 v -10.2103 h 4.407324 v 24.974835 z"
           style="font-weight:bold;-inkscape-font-specification:'Inria Sans Bold';fill:#000000;stroke:none"
           id="path1629" /><path
           d="m 116.24727,34.855607 v 5.252061 q 0,4.774601 -2.3873,7.529178 -2.3873,2.71785 -6.97827,2.71785 -4.62769,0 -7.014988,-2.71785 -2.350573,-2.754577 -2.350573,-7.529178 v -5.252061 q 0,-4.774601 2.350573,-7.492451 2.387298,-2.717849 7.014988,-2.717849 4.59097,0 6.97827,2.717849 2.3873,2.71785 2.3873,7.492451 z m -4.51751,0 q 0,-3.011671 -1.17529,-4.517507 -1.17528,-1.542563 -3.67277,-1.542563 -2.49748,0 -3.67277,1.542563 -1.17528,1.505836 -1.17528,4.517507 v 5.252061 q 0,3.011671 1.17528,4.554235 1.17529,1.542563 3.67277,1.542563 2.49749,0 3.67277,-1.542563 1.17529,-1.542564 1.17529,-4.554235 z"
           style="font-weight:bold;-inkscape-font-specification:'Inria Sans Bold';fill:#000000;stroke:none"
           id="path1631" /><path
           d="m 126.49427,49.987419 h -4.40732 V 25.012584 h 4.40732 z"
           style="font-weight:bold;-inkscape-font-specification:'Inria Sans Bold';fill:#000000;stroke:none"
           id="path1633" /><path
           d="m 145.29887,49.987419 -5.21533,-9.145197 -4.95824,9.145197 h -4.62769 l 7.30881,-12.964878 -6.9048,-12.009957 h 4.99496 l 4.81133,8.373915 4.51751,-8.373915 h 4.62769 l -6.86808,12.230323 7.30881,12.744512 z"
           style="font-weight:bold;-inkscape-font-specification:'Inria Sans Bold';fill:#000000;stroke:none"
           id="path1635" /><path
           d="M 161.64274,49.987419 V 25.012584 h 8.227 q 3.92986,0 5.87643,1.983295 1.9833,1.983296 1.9833,5.288789 v 1.946568 q 0,3.305493 -1.9833,5.325517 -1.94657,1.983295 -5.87643,1.983295 h -3.81968 v 8.447371 z m 8.227,-20.75115 h -3.81968 v 8.080094 h 3.81968 q 1.61602,0 2.46076,-0.80801 0.88146,-0.808009 0.88146,-2.277117 v -1.946568 q 0,-1.43238 -0.88146,-2.24039 -0.84474,-0.808009 -2.46076,-0.808009 z"
           style="font-weight:bold;-inkscape-font-specification:'Inria Sans Bold';fill:#000000;stroke:none"
           id="path1637" /><path
           d="m 194.36709,49.987419 -1.54257,-4.884784 h -8.55755 l -1.54256,4.884784 h -4.3706 L 186.691,25.012584 h 3.89313 l 8.37392,24.974835 z m -7.71282,-12.524145 -1.13856,3.599314 h 6.02334 l -1.13855,-3.599314 -1.83639,-6.317165 z"
           style="font-weight:bold;-inkscape-font-specification:'Inria Sans Bold';fill:#000000;stroke:none"
           id="path1639" /><path
           d="m 207.55233,40.805494 v 9.181925 h -4.40732 V 25.012584 h 8.33719 q 3.78295,0 5.80297,1.946568 2.05675,1.90984 2.05675,5.141878 v 1.579291 q 0,2.130206 -0.91819,3.746225 -0.91819,1.616019 -2.64439,2.460756 3.01167,5.141878 5.14188,10.100117 h -5.0317 q -1.83638,-4.590962 -4.3706,-9.181925 z m 3.92987,-11.752863 h -3.92987 v 7.712816 h 3.92987 q 1.61602,0 2.46075,-0.808009 0.88147,-0.844737 0.88147,-2.277117 V 32.10103 q 0,-1.395653 -0.88147,-2.203662 -0.84473,-0.844737 -2.46075,-0.844737 z"
           style="font-weight:bold;-inkscape-font-specification:'Inria Sans Bold';fill:#000000;stroke:none"
           id="path1641" /><path
           d="m 238.29339,40.40149 h -8.37392 v 9.585929 h -4.40732 V 25.012584 h 13.88307 v 4.223685 h -9.47575 v 6.941535 h 8.37392 z"
           style="font-weight:bold;-inkscape-font-specification:'Inria Sans Bold';fill:#000000;stroke:none"
           id="path1643" /><path
           d="m 256.25318,49.987419 -1.54256,-4.884784 h -8.55756 l -1.54256,4.884784 h -4.3706 l 8.33719,-24.974835 h 3.89314 l 8.37391,24.974835 z m -7.71282,-12.524145 -1.13856,3.599314 h 6.02335 l -1.13856,-3.599314 -1.83639,-6.317165 z"
           style="font-weight:bold;-inkscape-font-specification:'Inria Sans Bold';fill:#000000;stroke:none"
           id="path1645" /><path
           d="m 269.43841,49.987419 h -4.40732 V 25.012584 h 4.40732 z"
           style="font-weight:bold;-inkscape-font-specification:'Inria Sans Bold';fill:#000000;stroke:none"
           id="path1647" /><path
           d="m 273.36831,29.236269 v -4.223685 h 18.36385 v 4.223685 h -6.97827 v 20.75115 h -4.40732 v -20.75115 z"
           style="font-weight:bold;-inkscape-font-specification:'Inria Sans Bold';fill:#000000;stroke:none"
           id="path1649" /></g><g
         id="g1640"
         transform="matrix(0.22677166,0,0,0.22677166,-10.650122,3.484251)"><circle
           style="fill:#000000;stroke:#000000;stroke-width:4.47177;stroke-dasharray:none;stroke-opacity:1"
           id="path799"
           cx="150"
           cy="150"
           r="122.58744" /><ellipse
           style="fill:#000000;stroke:#ffffff;stroke-width:4.11008;stroke-dasharray:none;stroke-opacity:1"
           id="path799-4"
           cx="88.34877"
           cy="150"
           rx="61.293728"
           ry="61.29372" /><ellipse
           style="fill:#000000;stroke:#ffffff;stroke-width:4.11008;stroke-dasharray:none;stroke-opacity:1"
           id="path799-4-9"
           cx="211.65123"
           cy="150"
           rx="61.293728"
           ry="61.29372" /><path
           style="fill:#000000;stroke:#ffffff;stroke-width:7;stroke-linecap:round;stroke-linejoin:round;stroke-dasharray:none;stroke-opacity:1"
           d="m 177.11041,150 c 73.93504,0 72.11067,0 72.11067,0"
           id="path1883" /><path
           style="fill:#000000;stroke:#ffffff;stroke-width:7;stroke-linecap:round;stroke-linejoin:round;stroke-dasharray:none;stroke-opacity:1"
           d="m 51.101299,150 c 73.733021,0 71.913641,0 71.913641,0"
           id="path1883-2" /><path
           style="fill:#000000;stroke:#ffffff;stroke-width:7;stroke-linecap:round;stroke-linejoin:round;stroke-dasharray:none;stroke-opacity:1"
           d="m 213.16575,115.55967 c 0,72.02389 0,72.02389 0,72.02389"
           id="path1885" /></g></g></g></svg>
